<svg height="512" viewBox="0 0 64 64" width="512" xmlns="http://www.w3.org/2000/svg"><path d="m50 38a24 24 0 1 1 -33-22.24v-5.76h18v5.76a23.986 23.986 0 0 1 15 22.24z" fill="#2d2d30"/><path d="m22 6h8v4h-8z" fill="#57565c"/><path d="m55.5 5.982 2.692-2.982-.205 4.013 4.013-.205-2.982 2.692 2.982 2.692-4.013-.205.205 4.013-2.692-2.982-2.692 2.982.205-4.013-4.013.205 2.982-2.692-2.982-2.692 4.013.205-.205-4.013z" fill="#ffda44"/><path d="m30.032 57.617a1 1 0 0 0 .968.75.986.986 0 0 0 .25-.032 21.01 21.01 0 0 0 15.467-16.888 1 1 0 1 0 -1.973-.327 19.01 19.01 0 0 1 -13.994 15.28 1 1 0 0 0 -.718 1.217z"/><path d="m60.51 9.5 2.16-1.95a1 1 0 0 0 .254-1.125.985.985 0 0 0 -.975-.616l-2.907.149.149-2.907a1 1 0 0 0 -1.741-.721l-1.95 2.16-1.95-2.16a1 1 0 0 0 -1.741.721l.149 2.907-2.907-.149a.973.973 0 0 0 -.975.616 1 1 0 0 0 .254 1.125l1.606 1.45h-5.936v-7a1 1 0 0 0 -1-1h-17a1 1 0 0 0 -1 1v3h-3a1 1 0 0 0 -1 1v3h-4a1 1 0 0 0 -1 1v5.1a25 25 0 1 0 20 0v-5.1a1 1 0 0 0 -1-1h-4v-3a1 1 0 0 0 -1-1h-3v-2h15v7a1 1 0 0 0 1 1h5.829l-.5.45a1 1 0 0 0 .721 1.741l2.907-.149-.149 2.907a1 1 0 0 0 1.741.721l1.95-2.16 1.95 2.16a1 1 0 0 0 1.741-.721l-.149-2.907 2.907.149a1 1 0 0 0 .721-1.741zm-25.885 7.187a23.02 23.02 0 1 1 -17.848.268.981.981 0 0 0 .223.045h10a1 1 0 0 0 0-2h-9v-4h16v4.76a1 1 0 0 0 .625.927zm-5.625-9.687v2h-6v-2zm29.348 3.242.894.808-1.2-.061a1.012 1.012 0 0 0 -.759.291 1 1 0 0 0 -.291.759l.061 1.2-.808-.894a1 1 0 0 0 -1.484 0l-.808.894.061-1.2a1 1 0 0 0 -1.05-1.05l-1.2.061.894-.808a1 1 0 0 0 0-1.484l-.894-.808 1.2.061a1 1 0 0 0 1.05-1.05l-.061-1.2.808.894a1.03 1.03 0 0 0 1.484 0l.808-.894-.061 1.2a1 1 0 0 0 1.05 1.05l1.2-.061-.894.808a1 1 0 0 0 0 1.484z"/><path d="m32 16a1 1 0 0 0 -1-1h-1a1 1 0 0 0 0 2h1a1 1 0 0 0 1-1z"/></svg>