<svg id="Layer_2" height="512" viewBox="0 0 128 128" width="512" xmlns="http://www.w3.org/2000/svg" data-name="Layer 2"><rect fill="#ff6ca8" height="6.418" rx="3.209" width="10" x="48.333" y="1.75"/><rect fill="#284cb2" height="22.583" rx="11.292" width="102.333" x="12.833" y="103.667"/><path d="m100.917 83.829-8.792 6.004h-56.25l-8.792-6.004v-20.065h73.834z" fill="#284cb2"/><path d="m35.875 89.833h56.25v13.833h-56.25z" fill="#f4b500"/><path d="m35.875 89.833v4.003h52.247v9.831h4.003v-13.834z" fill="#f29b00"/><path d="m108.75 63.764h-89.5v-9.819l10.008-9.82h69.484l10.008 9.82z" fill="#06daf7"/><path d="m37.917 63.764h52.167v15.736h-52.167z" fill="#e8f3fc"/><path d="m80.075 44.125h-32.15l-10.008-8.5h52.166z" fill="#e8f3fc"/><path d="m90.083 35.625h-52.166v-10.937l10.008-10.938h32.15l10.008 10.938z" fill="#284cb2"/><g fill="#e8f3fc"><circle cx="24.125" cy="114.958" r="4.208"/><circle cx="103.875" cy="114.958" r="4.208"/><circle cx="50.779" cy="114.958" r="4.208"/><circle cx="77.221" cy="114.958" r="4.208"/></g><path d="m126.25 91.75h-15.167v-2.333a5.083 5.083 0 0 1 5.083-5.083h5a5.083 5.083 0 0 1 5.083 5.083z" fill="#284cb2"/><path d="m1.75 91.75h15.167v-2.333a5.083 5.083 0 0 0 -5.083-5.083h-5a5.083 5.083 0 0 0 -5.084 5.083z" fill="#284cb2"/><path d="m58.333 77.75h-2.664a1.75 1.75 0 0 0 0 3.5h2.664a1.75 1.75 0 0 0 0-3.5z"/><path d="m98.18 113.208h-15.264a5.957 5.957 0 0 0 -11.39 0h-15.052a5.957 5.957 0 0 0 -11.39 0h-15.264a5.958 5.958 0 1 0 0 3.5h15.265a5.957 5.957 0 0 0 11.39 0h15.051a5.957 5.957 0 0 0 11.39 0h15.264a5.958 5.958 0 1 0 0-3.5zm-74.055 4.208a2.458 2.458 0 1 1 2.458-2.458 2.461 2.461 0 0 1 -2.458 2.459zm26.654 0a2.458 2.458 0 1 1 2.458-2.458 2.461 2.461 0 0 1 -2.458 2.459zm26.441 0a2.458 2.458 0 1 1 2.458-2.458 2.461 2.461 0 0 1 -2.457 2.459zm29.112-2.458a2.458 2.458 0 1 1 -2.458-2.458 2.461 2.461 0 0 1 2.459 2.458z"/><path d="m76.125 22.938h-23.875a1.75 1.75 0 0 0 0 3.5h23.875a1.75 1.75 0 0 0 0-3.5z"/><path d="m121.167 82.583h-.75v-18.722a11.672 11.672 0 0 0 -10.917-11.628l-9.536-9.357a1.749 1.749 0 0 0 -1.226-.5h-13.9l6.377-5.416a1.809 1.809 0 0 0 .617-1.334v-10.938a1.75 1.75 0 0 0 -.459-1.181l-10.007-10.938a1.749 1.749 0 0 0 -1.291-.569h-24.992v-2.082h.041a4.959 4.959 0 0 0 0-9.918h-3.582a4.959 4.959 0 0 0 0 9.918h.041v2.082h-3.658a1.749 1.749 0 0 0 -1.291.569l-10.008 10.937a1.75 1.75 0 0 0 -.459 1.181v10.938a1.8 1.8 0 0 0 .617 1.334l6.377 5.416h-13.9a1.749 1.749 0 0 0 -1.226.5l-9.535 9.358a11.672 11.672 0 0 0 -10.917 11.628v18.722h-.75a6.841 6.841 0 0 0 -6.833 6.834v2.333a1.75 1.75 0 0 0 1.75 1.75v8.667a5.507 5.507 0 0 0 5.5 5.5 1.75 1.75 0 0 0 0-3.5 2 2 0 0 1 -2-2v-8.667h7.292v1.635a5.35 5.35 0 0 1 -1.592 3.815 1.745 1.745 0 0 0 1.242 2.973 1.767 1.767 0 0 0 1.252-.518 8.81 8.81 0 0 0 2.6-6.27v-1.635h.875a1.75 1.75 0 0 0 1.75-1.75v-2.333a6.841 6.841 0 0 0 -6.834-6.833h-.75v-18.723a8.178 8.178 0 0 1 6.415-7.973v7.876a1.75 1.75 0 0 0 1.75 1.75h6.083v18.315a1.75 1.75 0 0 0 .763 1.445l8.029 5.484v11.159h-10a13.042 13.042 0 1 0 0 26.083h79.75a12.952 12.952 0 0 0 9.222-3.82 1.75 1.75 0 1 0 -2.475-2.475 9.478 9.478 0 0 1 -6.747 2.794h-79.75a9.542 9.542 0 1 1 0-19.083h79.75a9.553 9.553 0 0 1 9.542 9.542 1.75 1.75 0 0 0 3.5 0 13.057 13.057 0 0 0 -13.042-13.042h-10v-11.158l8.029-5.484a1.75 1.75 0 0 0 .763-1.445v-18.315h6.083a1.75 1.75 0 0 0 1.75-1.75v-7.876a8.178 8.178 0 0 1 6.417 7.973v18.722h-.75a6.841 6.841 0 0 0 -6.834 6.833v2.334a1.75 1.75 0 0 0 1.75 1.75h.875v1.635a8.827 8.827 0 0 0 2.617 6.29 1.72 1.72 0 0 0 1.223.508 1.755 1.755 0 0 0 1.232-3 5.334 5.334 0 0 1 -1.572-3.8v-1.633h7.292v8.667a2 2 0 0 1 -2 2 1.75 1.75 0 0 0 0 3.5 5.507 5.507 0 0 0 5.5-5.5v-8.667a1.75 1.75 0 0 0 1.75-1.75v-2.333a6.841 6.841 0 0 0 -6.833-6.834zm-71.084-77.624a1.46 1.46 0 0 1 1.459-1.459h3.582a1.459 1.459 0 0 1 0 2.918h-3.582a1.461 1.461 0 0 1 -1.459-1.459zm-34.916 84.458v.583h-11.667v-.583a3.337 3.337 0 0 1 3.333-3.333h5a3.338 3.338 0 0 1 3.334 3.333zm24.5-64.049 9.033-9.868h30.6l9.028 9.867v8.508h-48.661zm3.014 12.008h42.638l-5.887 5h-30.865zm-5.056 64.542v-10.335h52.75v10.333zm61.542-19.018-7.583 5.179h-55.168l-7.583-5.179v-17.386h7.334v13.986a1.75 1.75 0 0 0 1.75 1.75h9.083a1.75 1.75 0 0 0 0-3.5h-7.333v-12.236h5.583v6.118a1.75 1.75 0 0 0 3.5 0v-6.118h5v6.118a1.75 1.75 0 0 0 3.5 0v-6.118h5v6.118a1.75 1.75 0 0 0 3.5 0v-6.118h5v6.118a1.75 1.75 0 0 0 3.5 0v-6.118h5v6.118a1.75 1.75 0 0 0 3.5 0v-6.118h5.583v12.236h-21.333a1.75 1.75 0 0 0 0 3.5h23.083a1.75 1.75 0 0 0 1.75-1.75v-13.986h7.334zm7.833-20.886h-86v-7.335l8.973-8.8h68.054l8.973 8.8zm5.833 27.4a3.338 3.338 0 0 1 3.334-3.333h5a3.337 3.337 0 0 1 3.333 3.333v.586h-11.667z"/></svg>