<svg height="511pt" viewBox="-25 1 511 511.999" width="511pt" xmlns="http://www.w3.org/2000/svg"><path d="m381.847656 100.785156h-300.890625c-3.769531 0-7.203125-2.167968-8.820312-5.570312l-26.671875-56h371.875l-26.667969 56c-1.621094 3.402344-5.054687 5.570312-8.824219 5.570312zm0 0" fill="#43a3f9"/><path d="m417.339844 39.214844-26.664063 56.003906c-1.628906 3.394531-5.054687 5.5625-8.828125 5.5625h-21.691406c3.761719 0 7.199219-2.164062 8.816406-5.5625l26.675782-56.003906zm0 0" fill="#1685fb"/><path d="m425.484375 17.269531v34.160157c0 5.398437-4.375 9.773437-9.773437 9.773437h-368.617188c-5.398438 0-9.769531-4.375-9.769531-9.773437v-34.160157c0-5.386719 4.371093-9.773437 9.769531-9.773437h368.617188c5.398437 0 9.773437 4.386718 9.773437 9.773437zm0 0" fill="#e3f4ff"/><path d="m425.484375 17.269531v34.160157c0 5.398437-4.375 9.773437-9.773437 9.773437h-18.640626c5.398438 0 9.773438-4.375 9.773438-9.773437v-34.160157c0-5.386719-4.375-9.773437-9.773438-9.773437h18.640626c5.398437 0 9.773437 4.386718 9.773437 9.773437zm0 0" fill="#bddff4"/><path d="m305.476562 61.203125h-148.144531l21.324219-27.519531h105.496094zm0 0" fill="#48ffe0"/><path d="m51.636719 425.875h359.53125c3.769531 0 7.203125 2.167969 8.824219 5.570312l26.667968 56h-430.511718l26.667968-56c1.617188-3.402343 5.050782-5.570312 8.820313-5.570312zm0 0" fill="#43a3f9"/><path d="m446.65625 487.445312h-21.691406l-26.664063-56c-1.625-3.398437-5.054687-5.574218-8.828125-5.574218h21.691406c3.773438 0 7.210938 2.175781 8.828126 5.574218zm0 0" fill="#1685fb"/><path d="m17.773438 465.457031h427.261718c5.394532 0 9.773438 4.375 9.773438 9.773438v19.496093c0 5.398438-4.378906 9.773438-9.773438 9.773438h-427.261718c-5.398438 0-9.773438-4.375-9.773438-9.773438v-19.496093c0-5.398438 4.375-9.773438 9.773438-9.773438zm0 0" fill="#e3f4ff"/><path d="m454.8125 475.234375v19.492187c0 5.402344-4.382812 9.773438-9.785156 9.773438h-24.261719c5.398437 0 9.773437-4.371094 9.773437-9.773438v-19.492187c0-5.402344-4.375-9.773437-9.773437-9.773437h24.261719c5.402344 0 9.785156 4.371093 9.785156 9.773437zm0 0" fill="#bddff4"/><path d="m221.964844 148.480469c0 11.828125-9.589844 21.417969-21.417969 21.417969s-21.414063-9.589844-21.414063-21.417969 9.585938-21.417969 21.414063-21.417969 21.417969 9.589844 21.417969 21.417969zm0 0" fill="#48ffe0"/><path d="m200.550781 169.902344c-6.382812 0-12.125-2.796875-16.042969-7.230469.945313.128906 1.917969.199219 2.902344.195313 11.839844 0 21.421875-9.585938 21.425782-21.414063-.003907-5.445313-2.035157-10.417969-5.382813-14.1875 10.453125 1.414063 18.511719 10.375 18.511719 21.21875-.003906 11.824219-9.582032 21.410156-21.414063 21.417969zm0 0" fill="#00e5b9"/><path d="m124.703125 376.554688c0 11.828124-9.589844 21.414062-21.417969 21.414062s-21.417968-9.585938-21.417968-21.414062c0-11.828126 9.589843-21.417969 21.417968-21.417969s21.417969 9.589843 21.417969 21.417969zm0 0" fill="#48ffe0"/><path d="m103.289062 397.976562c-6.386718 0-12.125-2.796874-16.046874-7.230468.949218.128906 1.921874.199218 2.90625.195312 11.839843 0 21.421874-9.589844 21.425781-21.414062-.007813-5.445313-2.035157-10.417969-5.382813-14.1875 10.453125 1.414062 18.511719 10.375 18.511719 21.21875-.003906 11.824218-9.582031 21.410156-21.414063 21.417968zm0 0" fill="#00e5b9"/><path d="m380.429688 266.609375c0 11.828125-9.589844 21.417969-21.417969 21.417969s-21.417969-9.589844-21.417969-21.417969 9.589844-21.414063 21.417969-21.414063 21.417969 9.585938 21.417969 21.414063zm0 0" fill="#48ffe0"/><path d="m359.015625 288.035156c-6.382813 0-12.125-2.796875-16.046875-7.230468.949219.128906 1.921875.199218 2.90625.195312 11.839844 0 21.421875-9.589844 21.425781-21.414062-.007812-5.445313-2.035156-10.417969-5.382812-14.1875 10.453125 1.414062 18.511719 10.375 18.511719 21.21875-.003907 11.824218-9.582032 21.410156-21.414063 21.417968zm0 0" fill="#00e5b9"/><path d="m47.09375 68.703125h4.109375l14.160156 29.734375c2.847657 5.980469 8.96875 9.847656 15.597657 9.847656h210.183593c4.140625 0 7.5-3.359375 7.5-7.5 0-4.144531-3.359375-7.5-7.5-7.5h-210.1875c-.871093 0-1.675781-.511718-2.050781-1.296875l-11.089844-23.285156h327.171875l-11.085937 23.285156c-.375.785157-1.183594 1.296875-2.054688 1.296875h-56.179687c-4.140625 0-7.5 3.355469-7.5 7.5 0 4.140625 3.359375 7.5 7.5 7.5h56.179687c6.625 0 12.746094-3.867187 15.597656-9.847656l14.160157-29.734375h4.109375c9.523437 0 17.269531-7.75 17.269531-17.273437v-34.15625c0-9.523438-7.746094-17.273438-17.269531-17.273438h-368.621094c-9.523438 0-17.273438 7.75-17.273438 17.273438v34.15625c0 9.523437 7.75 17.273437 17.273438 17.273437zm125.535156-15 9.703125-12.519531h98.140625l9.703125 12.519531zm-127.808594-36.429687c0-1.253907 1.019532-2.273438 2.273438-2.273438h368.621094c1.25 0 2.269531 1.019531 2.269531 2.273438v34.15625c0 1.253906-1.019531 2.273437-2.269531 2.273437h-106.5625l-19.074219-24.613281c-1.417969-1.832032-3.609375-2.90625-5.925781-2.90625h-105.496094c-2.320312 0-4.507812 1.074218-5.929688 2.90625l-19.074218 24.613281h-106.558594c-1.253906 0-2.273438-1.019531-2.273438-2.273437zm0 0"/><path d="m445.035156 457.957031h-4.109375l-14.160156-29.734375c-2.847656-5.980468-8.96875-9.847656-15.597656-9.847656h-76.5c-4.140625 0-7.5 3.359375-7.5 7.5 0 4.144531 3.359375 7.5 7.5 7.5h76.5c.875 0 1.679687.507812 2.054687 1.296875l11.085938 23.285156h-269.640625c-4.144531 0-7.5 3.355469-7.5 7.5s3.355469 7.5 7.5 7.5h290.367187c1.253906 0 2.273438 1.019531 2.273438 2.273438v19.496093c0 1.253907-1.019532 2.273438-2.273438 2.273438h-427.261718c-1.253907 0-2.273438-1.019531-2.273438-2.273438v-19.496093c0-1.253907 1.019531-2.273438 2.273438-2.273438h102.371093c4.140625 0 7.5-3.355469 7.5-7.5s-3.359375-7.5-7.5-7.5h-81.648437l11.089844-23.285156c.375-.789063 1.179687-1.296875 2.050781-1.296875h248.507812c4.140625 0 7.5-3.355469 7.5-7.5 0-4.140625-3.359375-7.5-7.5-7.5h-248.507812c-6.625 0-12.746094 3.867188-15.59375 9.847656l-14.160157 29.734375h-4.109374c-9.523438 0-17.273438 7.75-17.273438 17.273438v19.496093c0 9.523438 7.75 17.273438 17.273438 17.273438h427.261718c9.523438 0 17.273438-7.75 17.273438-17.273438v-19.496093c0-9.523438-7.75-17.273438-17.273438-17.273438zm0 0"/><path d="m419.507812 186.183594c0-14.816406-19.242187-26.125-58.832031-34.566406-34.609375-7.378907-80.519531-11.441407-129.273437-11.441407-1.054688 0-2.101563.003907-3.15625.011719-3.574219-11.917969-14.632813-20.625-27.699219-20.625-13.8125 0-25.386719 9.738281-28.238281 22.707031-35.308594 2.578125-65.800782 7.347657-88.3125 13.839844-27.386719 7.898437-40.699219 17.734375-40.699219 30.074219 0 10.859375 10.355469 19.832031 31.46875 27.171875-21.113281 7.34375-31.46875 16.316406-31.46875 27.175781s10.355469 19.832031 31.46875 27.175781c-21.113281 7.34375-31.46875 16.316407-31.46875 27.175781 0 10.859376 10.355469 19.832032 31.46875 27.171876-21.113281 7.34375-31.46875 16.316406-31.46875 27.175781 0 10.8125 10.179687 19.660156 31.078125 27.011719 0 .101562-.007812.207031-.007812.3125 0 15.945312 12.972656 28.917968 28.917968 28.917968 11.640625 0 21.691406-6.917968 26.273438-16.855468 30.175781 4.335937 65.230468 6.621093 101.84375 6.621093 48.753906 0 94.664062-4.0625 129.273437-11.441406 39.589844-8.441406 58.832031-19.746094 58.832031-34.5625 0-10.859375-10.351562-19.835937-31.464843-27.175781 21.113281-7.34375 31.464843-16.3125 31.464843-27.175782 0-10.878906-10.335937-19.792968-31.542968-27.171874 21.210937-7.378907 31.542968-16.292969 31.542968-27.179688 0-10.859375-10.351562-19.832031-31.464843-27.171875 21.113281-7.34375 31.464843-16.316406 31.464843-27.175781zm-218.960937-51.621094c7.675781 0 13.917969 6.242188 13.917969 13.917969s-6.242188 13.917969-13.917969 13.917969c-7.671875 0-13.914063-6.242188-13.914063-13.917969s6.242188-13.917969 13.914063-13.917969zm-97.261719 255.910156c-7.671875 0-13.917968-6.246094-13.917968-13.917968 0-7.675782 6.246093-13.917969 13.917968-13.917969 7.675782 0 13.917969 6.242187 13.917969 13.917969 0 7.671874-6.242187 13.917968-13.917969 13.917968zm301.222656-41.242187c0 .101562-2.015624 10.3125-46.960937 19.894531-33.613281 7.167969-78.410156 11.113281-126.144531 11.113281-35.765625 0-69.941406-2.214843-99.332032-6.417969-1.382812-14.667968-13.761718-26.183593-28.785156-26.183593-10.546875 0-19.789062 5.675781-24.839844 14.132812-16.335937-5.886719-20.148437-11.09375-20.148437-12.539062 0-.09375 1.96875-10.035157 45.179687-19.503907 34.453126 7.199219 79.800782 11.164063 127.925782 11.164063 48.128906 0 93.476562-3.964844 127.925781-11.164063 43.214844 9.464844 45.179687 19.40625 45.179687 19.503907zm-251.460937-27.175781c24.066406-2.503907 50.71875-3.832032 78.355469-3.832032 27.640625 0 54.289062 1.328125 78.359375 3.832032-24.070313 2.507812-50.71875 3.832031-78.359375 3.832031-27.636719 0-54.289063-1.324219-78.355469-3.832031zm251.460937-27.171876c0 .097657-1.964843 10.039063-45.179687 19.503907-34.449219-7.199219-79.796875-11.164063-127.925781-11.164063-48.125 0-93.472656 3.964844-127.925782 11.164063-43.210937-9.464844-45.179687-19.40625-45.179687-19.503907 0-.097656 1.96875-10.039062 45.179687-19.507812 34.453126 7.199219 79.800782 11.164062 127.925782 11.164062 36.597656 0 71.734375-2.300781 101.933594-6.644531 4.820312 9.277344 14.515624 15.632813 25.675781 15.632813 10.28125 0 19.320312-5.394532 24.449219-13.503906 17.015624 5.992187 21.046874 11.339843 21.046874 12.859374zm-251.460937-27.175781c24.066406-2.503906 50.71875-3.832031 78.355469-3.832031 27.449218 0 54.039062 1.3125 78.230468 3.832031-24.1875 2.515625-50.769531 3.832031-78.230468 3.832031-27.636719 0-54.289063-1.328124-78.355469-3.832031zm205.964844 12.820313c-7.675781 0-13.917969-6.242188-13.917969-13.917969 0-7.671875 6.242188-13.917969 13.917969-13.917969s13.917969 6.246094 13.917969 13.917969c0 7.675781-6.242188 13.917969-13.917969 13.917969zm45.496093-39.996094c0 1.476562-3.839843 6.632812-19.984374 12.480469-4.875-9.109375-14.480469-15.320313-25.511719-15.320313-11.964844 0-22.253907 7.304688-26.648438 17.6875-29.980469-4.257812-64.769531-6.503906-100.960937-6.503906-48.125 0-93.472656 3.960938-127.925782 11.164062-43.210937-9.46875-45.179687-19.410156-45.179687-19.507812s1.96875-10.039062 45.179687-19.507812c34.453126 7.203124 79.800782 11.164062 127.925782 11.164062 48.128906 0 93.476562-3.960938 127.925781-11.164062 43.214844 9.46875 45.179687 19.410156 45.179687 19.507812zm-251.464843-27.175781c24.070312-2.503907 50.722656-3.828125 78.359375-3.828125 27.640625 0 54.289062 1.324218 78.359375 3.828125-24.070313 2.507812-50.71875 3.832031-78.359375 3.832031-27.636719 0-54.289063-1.324219-78.359375-3.832031zm206.289062-7.667969c-34.453125-7.199219-79.800781-11.160156-127.929687-11.160156-48.125 0-93.476563 3.960937-127.925782 11.160156-43.210937-9.46875-45.179687-19.410156-45.179687-19.503906 0-1.832032 5.484375-8.632813 29.855469-15.660156 21.128906-6.097657 51.164062-10.78125 84.84375-13.261719 3.726562 11.664062 14.667968 20.136719 27.550781 20.136719 13.636719 0 25.09375-9.492188 28.125-22.214844.910156-.003906 1.816406-.007813 2.730469-.007813 47.730468 0 92.53125 3.945313 126.144531 11.113281 44.941406 9.582032 46.960937 19.792969 46.960937 19.894532 0 .09375-1.964843 10.035156-45.175781 19.503906zm0 0"/><path d="m328.667969 46.714844c4.144531 0 7.5-3.355469 7.5-7.5 0-4.140625-3.355469-7.5-7.5-7.5h-.09375c-4.140625 0-7.453125 3.359375-7.453125 7.5 0 4.144531 3.40625 7.5 7.546875 7.5zm0 0"/><path d="m350.476562 46.714844c4.144532 0 7.5-3.355469 7.5-7.5 0-4.140625-3.355468-7.5-7.5-7.5h-.09375c-4.140624 0-7.453124 3.359375-7.453124 7.5 0 4.144531 3.40625 7.5 7.546874 7.5zm0 0"/></svg>